<mxfile host="65bd71144e">
    <diagram id="AYCIciPir0RGrKzQzy5o" name="Page-1">
        <mxGraphModel dx="1000" dy="804" grid="1" gridSize="10" guides="1" tooltips="1" connect="1" arrows="1" fold="1" page="1" pageScale="1" pageWidth="850" pageHeight="1100" math="0" shadow="0">
            <root>
                <mxCell id="0"/>
                <mxCell id="1" parent="0"/>
                <mxCell id="2" value="Jugador" style="shape=umlActor;verticalLabelPosition=bottom;verticalAlign=top;html=1;outlineConnect=0;" vertex="1" parent="1">
                    <mxGeometry x="33" y="280" width="30" height="60" as="geometry"/>
                </mxCell>
                <mxCell id="3" value="Iniciar Juego" style="ellipse;whiteSpace=wrap;html=1;" vertex="1" parent="1">
                    <mxGeometry x="118" y="270" width="120" height="80" as="geometry"/>
                </mxCell>
                <mxCell id="4" value="Seleccionar personaje a pasar" style="ellipse;whiteSpace=wrap;html=1;" vertex="1" parent="1">
                    <mxGeometry x="327" y="270" width="120" height="80" as="geometry"/>
                </mxCell>
                <mxCell id="5" value="Verificar en orilla izquierda y orilla derecha que los personajes no se coman" style="ellipse;whiteSpace=wrap;html=1;" vertex="1" parent="1">
                    <mxGeometry x="565" y="250" width="180" height="120" as="geometry"/>
                </mxCell>
                <mxCell id="6" value="Presentar &quot;Ganaste&quot;" style="ellipse;whiteSpace=wrap;html=1;" vertex="1" parent="1">
                    <mxGeometry x="595" y="100" width="120" height="80" as="geometry"/>
                </mxCell>
                <mxCell id="7" value="Presentar &quot;Perdiste&quot;" style="ellipse;whiteSpace=wrap;html=1;" vertex="1" parent="1">
                    <mxGeometry x="595" y="430" width="120" height="80" as="geometry"/>
                </mxCell>
                <mxCell id="8" value="Use" style="endArrow=open;endSize=12;dashed=1;html=1;" edge="1" parent="1" source="2" target="3">
                    <mxGeometry width="160" relative="1" as="geometry">
                        <mxPoint x="363" y="260" as="sourcePoint"/>
                        <mxPoint x="523" y="260" as="targetPoint"/>
                    </mxGeometry>
                </mxCell>
                <mxCell id="11" value="&amp;lt;&amp;lt;include&amp;gt;&amp;gt;" style="endArrow=open;endSize=12;dashed=1;html=1;" edge="1" parent="1" source="3" target="4">
                    <mxGeometry width="160" relative="1" as="geometry">
                        <mxPoint x="188" y="140" as="sourcePoint"/>
                        <mxPoint x="188" y="280" as="targetPoint"/>
                    </mxGeometry>
                </mxCell>
                <mxCell id="12" value="&amp;lt;&amp;lt;include&amp;gt;&amp;gt;" style="endArrow=open;endSize=12;dashed=1;html=1;" edge="1" parent="1" source="4" target="5">
                    <mxGeometry width="160" relative="1" as="geometry">
                        <mxPoint x="248" y="320" as="sourcePoint"/>
                        <mxPoint x="303" y="320" as="targetPoint"/>
                    </mxGeometry>
                </mxCell>
                <mxCell id="13" value="Extends" style="endArrow=block;endSize=16;endFill=0;html=1;" edge="1" parent="1" source="6" target="5">
                    <mxGeometry width="160" relative="1" as="geometry">
                        <mxPoint x="420" y="260" as="sourcePoint"/>
                        <mxPoint x="580" y="260" as="targetPoint"/>
                    </mxGeometry>
                </mxCell>
                <mxCell id="14" value="Extends" style="endArrow=block;endSize=16;endFill=0;html=1;" edge="1" parent="1" source="7" target="5">
                    <mxGeometry width="160" relative="1" as="geometry">
                        <mxPoint x="665" y="190" as="sourcePoint"/>
                        <mxPoint x="665" y="260" as="targetPoint"/>
                    </mxGeometry>
                </mxCell>
                <mxCell id="16" value="Juego" style="shape=umlFrame;whiteSpace=wrap;html=1;" vertex="1" parent="1">
                    <mxGeometry x="113" y="80" width="650" height="440" as="geometry"/>
                </mxCell>
            </root>
        </mxGraphModel>
    </diagram>
</mxfile>